<svg xmlns="http://www.w3.org/2000/svg" viewBox="0 0 194.74 194.74"><defs><style>.cls-1{fill:#e0daca;}.cls-2{fill:#fff;}.cls-3{fill:#4f4344;}</style></defs><g id="Capa_2" data-name="Capa 2"><g id="Capa_1-2" data-name="Capa 1"><path d="M0 0h194.74v194.74H0z" class="cls-1"/><path d="M58.14 63.37a7.05 7.05 0 0 0-7 7v54a7.05 7.05 0 0 0 7 7h78a7.05 7.05 0 0 0 7-7v-54a7.05 7.05 0 0 0-7-7zm0 6h78a.94.94 0 0 1 1 1v37.75L122 96a3.09 3.09 0 0 0-3.56-.16l-14.19 9.75L85 90a2.95 2.95 0 0 0-3.59-.12l-24.27 16.77V70.37a.94.94 0 0 1 1-1zm46 6a9 9 0 1 0 9 9 9 9 0 0 0-9-9zm0 6a3 3 0 1 1-3 3 3 3 0 0 1 3-3zM83 96.12l19.25 15.56a3.09 3.09 0 0 0 3.56.16l14.19-9.75 17.16 13.72v8.56a.94.94 0 0 1-1 1h-78a.94.94 0 0 1-1-1V114z" class="cls-2"/><path d="M81.94 155a3.06 3.06 0 0 1 1.16.2 3.17 3.17 0 0 1 .85.5 2.22 2.22 0 0 1 .53.63 1.43 1.43 0 0 1 .19.61.19.19 0 0 1-.06.17.25.25 0 0 1-.17.07H84a.36.36 0 0 1-.19 0 .47.47 0 0 1-.15-.19 2 2 0 0 0-.18-.27 1.59 1.59 0 0 0-.33-.32 2.06 2.06 0 0 0-.51-.27 2 2 0 0 0-.7-.11 2.35 2.35 0 0 0-.58.07 1.65 1.65 0 0 0-.49.21 1.12 1.12 0 0 0-.34.35.92.92 0 0 0-.13.49.86.86 0 0 0 .12.47 1.11 1.11 0 0 0 .4.35 3.47 3.47 0 0 0 .69.29l1 .29a6.59 6.59 0 0 1 1 .35 2.73 2.73 0 0 1 .69.44 1.46 1.46 0 0 1 .39.56 2 2 0 0 1 .12.72 1.89 1.89 0 0 1-.21.89 2.08 2.08 0 0 1-.59.69 2.81 2.81 0 0 1-.91.45 4.1 4.1 0 0 1-1.19.16 3.49 3.49 0 0 1-1.15-.18 3.17 3.17 0 0 1-.9-.47 2.45 2.45 0 0 1-.6-.65 1.4 1.4 0 0 1-.23-.7.24.24 0 0 1 .24-.24h.44a.4.4 0 0 1 .19 0 .38.38 0 0 1 .15.19 1.58 1.58 0 0 0 .2.33 1.52 1.52 0 0 0 .36.33 2.14 2.14 0 0 0 .55.26 2.41 2.41 0 0 0 .76.11 2.89 2.89 0 0 0 .72-.09 2.1 2.1 0 0 0 .6-.25 1.34 1.34 0 0 0 .41-.39.89.89 0 0 0 .15-.51.71.71 0 0 0-.17-.48 1.57 1.57 0 0 0-.5-.36 4.71 4.71 0 0 0-.79-.3l-1.06-.29a4.23 4.23 0 0 1-.92-.34 2.24 2.24 0 0 1-.61-.46 1.56 1.56 0 0 1-.34-.57 2.16 2.16 0 0 1-.1-.68 2 2 0 0 1 .16-.78 1.93 1.93 0 0 1 .48-.67 2.42 2.42 0 0 1 .8-.47 3.23 3.23 0 0 1 1.19-.14zm5.31.87a.29.29 0 0 1-.29.29h-.61a.29.29 0 0 1-.29-.29v-.61a.29.29 0 0 1 .29-.29H87a.29.29 0 0 1 .29.29zm-.11 6.45a.28.28 0 0 1-.09.21.28.28 0 0 1-.2.09h-.4a.29.29 0 0 1-.29-.29v-5a.29.29 0 0 1 .29-.29h.4a.29.29 0 0 1 .29.29zm6.59 0a.28.28 0 0 1-.09.21.28.28 0 0 1-.2.09H93a.29.29 0 0 1-.29-.29v-2.84a1.71 1.71 0 0 0-.4-1.24 1.68 1.68 0 0 0-2.2 0 1.67 1.67 0 0 0-.41 1.24v2.84a.28.28 0 0 1-.09.21.28.28 0 0 1-.2.09H89a.29.29 0 0 1-.29-.29v-5A.29.29 0 0 1 89 157h.4a.29.29 0 0 1 .29.29v.33a2 2 0 0 1 .61-.5 2.12 2.12 0 0 1 1.06-.23 2.59 2.59 0 0 1 .94.17 2.11 2.11 0 0 1 .74.47 2.15 2.15 0 0 1 .48.76 2.84 2.84 0 0 1 .17 1zm5.54-5.32h1.37a.29.29 0 0 1 .29.29v.34a.3.3 0 0 1-.29.29h-1.37v4.38a.29.29 0 0 1-.29.29h-.4a.29.29 0 0 1-.29-.29v-4.38h-.9a.28.28 0 0 1-.2-.09.28.28 0 0 1-.09-.2v-.34a.29.29 0 0 1 .29-.29h.9v-.54a2 2 0 0 1 .42-1.37 1.76 1.76 0 0 1 1.36-.46h.68a.29.29 0 0 1 .29.29v.34a.29.29 0 0 1-.29.29h-.57a1.28 1.28 0 0 0-.46.07.62.62 0 0 0-.27.2.77.77 0 0 0-.13.31 1.81 1.81 0 0 0 0 .38zm4.81-.1a2.82 2.82 0 0 1 1 .18 2.34 2.34 0 0 1 .77.49 2.27 2.27 0 0 1 .51.76 3.15 3.15 0 0 1 .23 1 2.24 2.24 0 0 1 0 .23v.56a1.91 1.91 0 0 1 0 .22 3.45 3.45 0 0 1-.24 1 2.21 2.21 0 0 1-.51.75 2.32 2.32 0 0 1-.77.49 3.09 3.09 0 0 1-2.07 0 2.32 2.32 0 0 1-.77-.49 2.27 2.27 0 0 1-.51-.75 3.11 3.11 0 0 1-.23-1v-1.01a3.15 3.15 0 0 1 .23-1 2.26 2.26 0 0 1 .51-.76 2.34 2.34 0 0 1 .77-.49 2.82 2.82 0 0 1 1.08-.18zm1.57 3.36a4 4 0 0 0 0-.45 4.28 4.28 0 0 0 0-.46 2.31 2.31 0 0 0-.14-.6 1.46 1.46 0 0 0-.3-.48 1.4 1.4 0 0 0-.47-.32 1.87 1.87 0 0 0-1.31 0 1.39 1.39 0 0 0-.47.32 1.45 1.45 0 0 0-.3.48 2.31 2.31 0 0 0-.14.6 4.28 4.28 0 0 0 0 .46 4 4 0 0 0 0 .45 2.29 2.29 0 0 0 .14.6 1.43 1.43 0 0 0 .3.48 1.38 1.38 0 0 0 .47.32 1.88 1.88 0 0 0 1.31 0 1.39 1.39 0 0 0 .47-.32 1.44 1.44 0 0 0 .3-.48 2.29 2.29 0 0 0 .14-.6zm3.74.46a1.85 1.85 0 0 0 0 .38.78.78 0 0 0 .13.31.61.61 0 0 0 .27.2 1.26 1.26 0 0 0 .46.07h.57a.29.29 0 0 1 .29.29v.34a.28.28 0 0 1-.09.21.28.28 0 0 1-.2.09h-.68a1.7 1.7 0 0 1-1.36-.48 2.08 2.08 0 0 1-.42-1.4v-2.79h-.8a.28.28 0 0 1-.2-.09.28.28 0 0 1-.09-.2v-.34a.29.29 0 0 1 .29-.29h.8v-1.75a.29.29 0 0 1 .29-.29h.4a.29.29 0 0 1 .29.29V157h1.37a.29.29 0 0 1 .29.29v.34a.3.3 0 0 1-.29.29h-1.37zm5.13-3.82a2.82 2.82 0 0 1 1 .18 2.34 2.34 0 0 1 .77.49 2.27 2.27 0 0 1 .51.76 3.15 3.15 0 0 1 .23 1 2.24 2.24 0 0 1 0 .23v.56a1.91 1.91 0 0 1 0 .22 3.45 3.45 0 0 1-.24 1 2.21 2.21 0 0 1-.51.75 2.32 2.32 0 0 1-.77.49 3.09 3.09 0 0 1-2.07 0 2.32 2.32 0 0 1-.77-.49 2.27 2.27 0 0 1-.51-.75 3.11 3.11 0 0 1-.23-1v-1.01a3.15 3.15 0 0 1 .23-1 2.26 2.26 0 0 1 .51-.76 2.34 2.34 0 0 1 .77-.49 2.82 2.82 0 0 1 1.08-.18zm1.57 3.36a4 4 0 0 0 0-.45 4.28 4.28 0 0 0 0-.46 2.31 2.31 0 0 0-.14-.6 1.46 1.46 0 0 0-.3-.48 1.4 1.4 0 0 0-.47-.32 1.87 1.87 0 0 0-1.31 0 1.39 1.39 0 0 0-.47.32 1.45 1.45 0 0 0-.3.48 2.31 2.31 0 0 0-.14.6 4.28 4.28 0 0 0 0 .46 4 4 0 0 0 0 .45 2.29 2.29 0 0 0 .14.6 1.43 1.43 0 0 0 .3.48 1.38 1.38 0 0 0 .47.32 1.88 1.88 0 0 0 1.31 0 1.39 1.39 0 0 0 .47-.32 1.44 1.44 0 0 0 .3-.48 2.29 2.29 0 0 0 .14-.6z" class="cls-3"/></g></g></svg>